<?xml version="1.0" encoding="UTF-8" standalone="no"?>
<!-- Created with Inkscape (http://www.inkscape.org/) -->

<svg
   xmlns:dc="http://purl.org/dc/elements/1.1/"
   xmlns:cc="http://creativecommons.org/ns#"
   xmlns:rdf="http://www.w3.org/1999/02/22-rdf-syntax-ns#"
   xmlns:svg="http://www.w3.org/2000/svg"
   xmlns="http://www.w3.org/2000/svg"
   xmlns:sodipodi="http://sodipodi.sourceforge.net/DTD/sodipodi-0.dtd"
   xmlns:inkscape="http://www.inkscape.org/namespaces/inkscape"
   width="606.06665"
   height="654.99371"
   viewBox="0 0 160.35513 173.30042"
   version="1.1"
   id="svg8"
   sodipodi:docname="FC_Basel_logo.svg"
   inkscape:version="0.92.1 r15371">
  <defs
     id="defs2">
    <style
       id="style8364">.cls-1{fill:#1d1d1b;}.cls-2{fill:#ffe500;}.cls-3{fill:#fbba00;}.cls-4{fill:#e40428;}.cls-5{fill:#143a84;}.cls-6{fill:#0e2356;}.cls-7{fill:#af0d1c;}.cls-8{fill:url(#linear-gradient);}.cls-9{fill:url(#linear-gradient-2);}.cls-10{fill:#f39200;}.cls-100,.cls-101,.cls-102,.cls-11,.cls-12,.cls-13,.cls-14,.cls-15,.cls-16,.cls-17,.cls-18,.cls-19,.cls-20,.cls-21,.cls-22,.cls-23,.cls-24,.cls-25,.cls-26,.cls-27,.cls-28,.cls-29,.cls-30,.cls-31,.cls-32,.cls-33,.cls-34,.cls-35,.cls-36,.cls-37,.cls-38,.cls-39,.cls-40,.cls-41,.cls-42,.cls-43,.cls-44,.cls-45,.cls-46,.cls-47,.cls-48,.cls-49,.cls-50,.cls-51,.cls-52,.cls-53,.cls-54,.cls-55,.cls-56,.cls-57,.cls-58,.cls-59,.cls-60,.cls-61,.cls-62,.cls-63,.cls-64,.cls-65,.cls-66,.cls-67,.cls-68,.cls-69,.cls-70,.cls-71,.cls-72,.cls-73,.cls-74,.cls-75,.cls-76,.cls-77,.cls-78,.cls-79,.cls-80,.cls-81,.cls-82,.cls-83,.cls-84,.cls-85,.cls-86,.cls-87,.cls-88,.cls-89,.cls-90,.cls-91,.cls-92,.cls-93,.cls-94,.cls-95,.cls-96,.cls-97,.cls-98,.cls-99{fill:none;}.cls-11{stroke:#ffe500;}.cls-100,.cls-11,.cls-12,.cls-13,.cls-14,.cls-15,.cls-16,.cls-17,.cls-18,.cls-19,.cls-20,.cls-21,.cls-22,.cls-23,.cls-24,.cls-25,.cls-26,.cls-27,.cls-28,.cls-29,.cls-30,.cls-31,.cls-32,.cls-33,.cls-34,.cls-35,.cls-36,.cls-37,.cls-38,.cls-39,.cls-40,.cls-41,.cls-42,.cls-43,.cls-44,.cls-45,.cls-46,.cls-47,.cls-48,.cls-49,.cls-50,.cls-51,.cls-52,.cls-53,.cls-54,.cls-55,.cls-56,.cls-57,.cls-58,.cls-59,.cls-60,.cls-61,.cls-62,.cls-63,.cls-64,.cls-65,.cls-66,.cls-67,.cls-68,.cls-69,.cls-70,.cls-71,.cls-72,.cls-73,.cls-74,.cls-75,.cls-76,.cls-77,.cls-78,.cls-79,.cls-80,.cls-81,.cls-82,.cls-83,.cls-84,.cls-85,.cls-86,.cls-87,.cls-88,.cls-89,.cls-90,.cls-91,.cls-92,.cls-93,.cls-94,.cls-95,.cls-96,.cls-97,.cls-98,.cls-99{stroke-width:0.5px;}.cls-12{stroke:#ffe400;}.cls-13{stroke:#ffe300;}.cls-14{stroke:#ffe200;}.cls-15{stroke:#ffe100;}.cls-16{stroke:#ffe000;}.cls-17{stroke:#ffdf00;}.cls-18{stroke:#ffde00;}.cls-19{stroke:#fd0;}.cls-20{stroke:#ffdc00;}.cls-21{stroke:#ffdb00;}.cls-22{stroke:#ffda00;}.cls-23{stroke:#ffd900;}.cls-24{stroke:#ffd800;}.cls-25{stroke:gold;}.cls-26{stroke:#ffd600;}.cls-27{stroke:#ffd500;}.cls-28{stroke:#ffd400;}.cls-29{stroke:#ffd300;}.cls-30{stroke:#ffd200;}.cls-31{stroke:#ffd100;}.cls-32{stroke:#ffd000;}.cls-33{stroke:#ffcf00;}.cls-34{stroke:#ffce00;}.cls-35{stroke:#ffcd00;}.cls-36{stroke:#fc0;}.cls-37{stroke:#ffcb00;}.cls-38{stroke:#ffca00;}.cls-39{stroke:#fec900;}.cls-40{stroke:#fec800;}.cls-41{stroke:#fec700;}.cls-42{stroke:#fec600;}.cls-43{stroke:#fec500;}.cls-44{stroke:#fdc500;}.cls-45{stroke:#fdc400;}.cls-46{stroke:#fdc300;}.cls-47{stroke:#fdc200;}.cls-48{stroke:#fdc100;}.cls-49{stroke:#fdc000;}.cls-50{stroke:#fcc000;}.cls-51{stroke:#fcbf00;}.cls-52{stroke:#fcbe00;}.cls-53{stroke:#fcbd00;}.cls-54{stroke:#fcbc00;}.cls-55{stroke:#fcbb00;}.cls-56{stroke:#fbbb00;}.cls-57{stroke:#fbba00;}.cls-58{stroke:#fbb900;}.cls-59{stroke:#fbb800;}.cls-60{stroke:#fbb700;}.cls-61{stroke:#fab600;}.cls-62{stroke:#fab500;}.cls-63{stroke:#fab400;}.cls-64{stroke:#fab300;}.cls-65{stroke:#fab200;}.cls-66{stroke:#f9b200;}.cls-67{stroke:#f9b100;}.cls-68{stroke:#f9b000;}.cls-69{stroke:#f9af00;}.cls-70{stroke:#f9ae00;}.cls-71{stroke:#f9ad00;}.cls-72{stroke:#f8ac00;}.cls-73{stroke:#f8ab00;}.cls-74{stroke:#f8aa00;}.cls-75{stroke:#f8a900;}.cls-76{stroke:#f8a800;}.cls-77{stroke:#f7a800;}.cls-78{stroke:#f7a700;}.cls-79{stroke:#f7a600;}.cls-80{stroke:#f7a500;}.cls-81{stroke:#f7a400;}.cls-82{stroke:#f6a300;}.cls-83{stroke:#f6a200;}.cls-84{stroke:#f6a100;}.cls-85{stroke:#f6a000;}.cls-86{stroke:#f69f00;}.cls-87{stroke:#f59f00;}.cls-88{stroke:#f59e00;}.cls-89{stroke:#f59d00;}.cls-90{stroke:#f59c00;}.cls-91{stroke:#f59b00;}.cls-92{stroke:#f59a00;}.cls-93{stroke:#f49900;}.cls-94{stroke:#f49800;}.cls-95{stroke:#f49700;}.cls-96{stroke:#f49600;}.cls-97{stroke:#f49500;}.cls-98{stroke:#f39400;}.cls-99{stroke:#f39300;}.cls-100{stroke:#f39200;}.cls-101,.cls-102{stroke:#1d1d1b;stroke-width:3px;}.cls-102{stroke-linecap:round;}</style>
    <linearGradient
       gradientUnits="userSpaceOnUse"
       y2="199.98"
       x2="284.42999"
       y1="115.78"
       x1="284.42999"
       id="linear-gradient">
      <stop
         id="stop8366"
         stop-color="#ffe500"
         offset="0" />
      <stop
         id="stop8368"
         stop-color="#fbba00"
         offset="1" />
    </linearGradient>
    <linearGradient
       gradientUnits="userSpaceOnUse"
       y2="123.98"
       x2="284.32999"
       y1="220.49001"
       x1="284.32999"
       id="linear-gradient-2">
      <stop
         id="stop8371"
         stop-color="#ffe500"
         offset="0" />
      <stop
         id="stop8373"
         stop-color="#ffe100"
         offset="0.3" />
      <stop
         id="stop8375"
         stop-color="#fdd400"
         offset="0.61" />
      <stop
         id="stop8377"
         stop-color="#fcc000"
         offset="0.93" />
      <stop
         id="stop8379"
         stop-color="#fbba00"
         offset="1" />
    </linearGradient>
  </defs>
  <sodipodi:namedview
     id="base"
     pagecolor="#00ffff"
     bordercolor="#666666"
     borderopacity="1.0"
     inkscape:pageopacity="0"
     inkscape:pageshadow="2"
     inkscape:zoom="1.3231061"
     inkscape:cx="126.56709"
     inkscape:cy="-29.879968"
     inkscape:document-units="mm"
     inkscape:current-layer="layer1"
     showgrid="false"
     fit-margin-left="0.1"
     fit-margin-top="0.1"
     fit-margin-right="0.1"
     fit-margin-bottom="0.1"
     units="px"
     inkscape:window-width="1324"
     inkscape:window-height="708"
     inkscape:window-x="42"
     inkscape:window-y="23"
     inkscape:window-maximized="1" />
  <metadata
     id="metadata5">
    <rdf:RDF>
      <cc:Work
         rdf:about="">
        <dc:format>image/svg+xml</dc:format>
        <dc:type
           rdf:resource="http://purl.org/dc/dcmitype/StillImage" />
        <dc:title></dc:title>
      </cc:Work>
    </rdf:RDF>
  </metadata>
  <g
     inkscape:label="Layer 1"
     inkscape:groupmode="layer"
     id="layer1"
     transform="translate(-7.444059,65.801627)">
    <g
       data-name="Ebene 2"
       id="Ebene_2"
       transform="matrix(0.41315315,0,0,0.41315315,7.4705173,-65.775169)">
      <g
         data-name="Kontur aussen schwarz"
         id="Kontur_aussen_schwarz">
        <path
           id="path8386"
           d="M 379,23.66 374.25,0 370.84,1.5 352.15,9.72 C 309.95,28.29 270.53,32.1 224.34,32.1 174.52,32.1 136.21,25.22 96.26,9.1 L 75.14,0.59 70,22.78 c -4,17.41 -5.63,33.85 -7.2,49.75 l -0.68,6.87 v 0.32 c -0.36,5 -0.55,11.08 -0.55,18 0,34.86 4.9,91 12.82,120.93 21.61,84.12 71.25,153.27 139.91,194.68 l 9.92,6 10,-5.88 C 288.76,381.32 333.56,326.58 360.36,259.31 389.14,187 395.6,105.55 379,23.66 Z M 357.56,258.19 C 331,324.84 286.66,379.06 232.69,410.85 l -8.44,5 -8.39,-5.06 C 147.86,369.79 98.67,301.29 77.31,217.91 69.55,188.59 64.59,133.45 64.59,97.75 c 0,-6.71 0.18,-12.73 0.54,-17.77 v -0.25 l 0.68,-6.88 C 67.39,57 69,40.67 73,23.45 l 4.28,-18.76 17.85,7.2 c 40.33,16.27 79,23.21 129.21,23.21 46.57,0 86.34,-3.85 129,-22.63 l 18.69,-8.22 4,20 c 16.52,81.32 10.11,162.21 -18.47,233.94 z"
           class="cls-1"
           inkscape:connector-curvature="0"
           style="fill:#1d1d1b" />
      </g>
      <g
         data-name="Kontur hellgelb"
         id="Kontur_hellgelb">
        <path
           id="path8389"
           d="m 147.12,36.23 a 379.67,379.67 0 0 0 77.21,7.12 c 14,0 46.13,0.06 79,-6.46 33.6,-6.74 62.69,-21 62.69,-21 l 6.06,-11.69 -18.69,8.22 c -42.69,18.78 -82.45,22.63 -129,22.63 -50.23,0 -88.87,-6.94 -129.21,-23.21 l -17.9,-7.15 5.86,11.24 c 0,0 30.86,13.64 63.98,20.3 z"
           class="cls-2"
           inkscape:connector-curvature="0"
           style="fill:#ffe500" />
        <path
           id="path8391"
           d="m 316.35,318.93 c 15.57,-23.76 29.67,-48.66 43.49,-91.88 7.18,-22.45 16.93,-65.91 16.93,-111.72 0,-41.13 -4,-65.87 -10.68,-98.87 -0.07,-0.35 -0.1,-0.53 -0.1,-0.53 l -6,11.58 C 393.5,193.18 324.5,337.68 224.34,396.68 l -0.1,19.14 0.05,-9.68 C 271,380 301.77,341.18 316.35,318.93 Z"
           class="cls-2"
           inkscape:connector-curvature="0"
           style="fill:#ffe500" />
        <path
           id="path8393"
           d="M 222.69,405.29 C 203.88,394.29 163.37,367.5 129.29,316 110.5,287.33 98.78,260.73 88.85,228.87 77.95,193.87 72.8,138.17 72.8,100.76 72.8,68.54 78.08,35.68 83.08,16.07 L 83.14,15.93 77.28,4.69 73,23.45 C 69,40.67 67.39,57 65.83,72.82 l -0.68,6.88 v 0.25 c -0.36,5 -0.54,11.06 -0.54,17.77 0,35.7 5,90.85 12.72,120.16 21.36,83.38 70.56,151.88 138.55,192.88 l 8.39,5.06 0.05,-9.67 z"
           class="cls-2"
           inkscape:connector-curvature="0"
           style="fill:#ffe500" />
      </g>
      <g
         data-name="Kontur dunkelgelb"
         id="Kontur_dunkelgelb">
        <path
           id="path8396"
           d="m 303.3,36.9 c -32.84,6.52 -65,6.46 -79,6.46 a 379.67,379.67 0 0 1 -77.21,-7.12 c -33.08,-6.66 -64,-20.3 -64,-20.3 L 89,27.14 c 46,18.55 87.67,24.4 135.36,24.4 47.69,0 90.23,-4 135.64,-24 l 6,-11.58 c 0,0 -29.12,14.2 -62.7,20.94 z"
           class="cls-3"
           inkscape:connector-curvature="0"
           style="fill:#fbba00" />
        <path
           id="path8398"
           d="m 366.09,16.46 c 6.68,33 10.68,57.74 10.68,98.87 0,45.81 -9.75,89.28 -16.93,111.72 -13.82,43.21 -27.92,68.11 -43.49,91.88 C 301.77,341.18 271,380 224.29,406.14 l -0.05,9.68 8.44,-5 c 54,-31.79 98.32,-86 124.88,-152.66 28.58,-71.73 35,-152.62 18.54,-233.93 l -4,-20 -6.1,11.71 c 0,0 0,0.17 0.09,0.52 z"
           class="cls-3"
           inkscape:connector-curvature="0"
           style="fill:#fbba00" />
        <path
           id="path8400"
           d="m 89,27.14 -5.86,-11.21 -0.06,0.14 c -5,19.61 -10.28,52.47 -10.28,84.69 0,37.41 5.16,93.15 16.05,128.11 9.93,31.85 21.65,58.46 40.44,87.13 34.08,51.5 74.59,78.26 93.4,89.29 l 1.6,0.86 v -9.47 C 162.95,359.68 114.49,297.06 93.16,213.74 84.62,181.33 79.29,112 81.52,81.14 83.33,63.35 84.72,45.66 89,27.14 Z"
           class="cls-3"
           inkscape:connector-curvature="0"
           style="fill:#fbba00" />
      </g>
      <g
         id="ROTE_FLÄCHE">
        <path
           id="path8403"
           d="M 224.34,51.54 C 176.66,51.54 135,45.68 89,27.14 c -4.26,18.52 -5.66,36.21 -7.46,54 -2.24,30.86 3.1,100.19 11.69,132.6 21.31,83.32 69.77,145.94 131.11,182.94 z"
           class="cls-4"
           inkscape:connector-curvature="0"
           style="fill:#e40428" />
      </g>
      <g
         id="BLAUE_FLÄCHE">
        <path
           id="path8406"
           d="M 224.34,396.68 C 324.5,337.68 393.5,193.18 360,27.52 c -45.41,20 -88,24 -135.64,24 z"
           class="cls-5"
           inkscape:connector-curvature="0"
           style="fill:#143a84" />
      </g>
      <g
         id="TYPO-BACK_BLAU">
        <path
           id="path8409"
           d="M 224.31,92.93 H 288 v -26.4 h -63.69 z m 0,268.54 q 7.71,5.15 15.83,9.94 l 8.55,5 v -31 l -2.87,-1.63 c -1.72,-1 -3.44,-2 -5.16,-3 l 4.75,-2.25 c 65.57,-31.05 82.52,-65 85.2,-88.09 a 61,61 0 0 0 0.41,-7 61.78,61.78 0 0 0 -19.22,-44.49 c 14.4,-15.68 19.72,-31.79 19.72,-45.37 a 46.8,46.8 0 0 0 -3.25,-17.49 c -6.29,-15.57 -20.74,-25.24 -37.72,-25.24 h -53.22 c 0,0 0,27.91 0,35.95 h -13 v 26.37 h 13 c 0,10.58 0,163 0,165.56 -4.37,-2.76 -8.72,-5.72 -13,-8.87 z M 288.6,137.1 c 8.21,0 14,4.65 15.62,12.43 a 22.24,22.24 0 0 1 0.43,4.4 c 0,14.08 -12.28,33 -40.8,47.1 0,-9.21 0,-21.43 0,-27.9 h 22 v -26.4 h -22 c 0,-3.81 0,-5.86 0,-9.66 z m 2,80.14 c 8.81,8.15 13.3,17.15 13.3,26.85 q 0,1.61 -0.16,3.24 c -1.69,16.94 -16.73,35.46 -39.89,49.7 0,-14.21 0,-59.43 -0.05,-64.95 6.8,-3.5 18.08,-9.59 26.81,-14.83 z"
           class="cls-6"
           inkscape:connector-curvature="0"
           style="fill:#0e2356" />
      </g>
      <g
         id="TYPO-BACK_ROT">
        <path
           id="path8412"
           d="m 224.31,66.53 h -38.65 c 0,0 0,70.53 0,80.27 -12.36,0.24 -32,2.1 -46.3,16.37 -11,11 -16.59,27.33 -16.59,48.52 0,28 11.52,58 33.31,86.82 17.49,23.15 40.87,44.68 68.25,63 V 329.82 C 184.26,300.41 149.1,254.93 149.1,211.93 c 0,-13.33 3.26,-23.31 9.68,-29.67 7.89,-7.81 19.26,-9 26.9,-9.16 v 117.09 h 26.4 c 0,0 0,-106.79 0,-117.06 h 12.15 l 0.13,-26.37 h -12.3 V 92.93 h 12.21 z"
           class="cls-7"
           inkscape:connector-curvature="0"
           style="fill:#af0d1c" />
      </g>
      <g
         data-name="F  hellgelb"
         id="F_hellgelb">
        <path
           id="path8415"
           d="m 198.87,79.77 h 75.91 L 283,71.5 h -92.4 v 213.74 l 8.23,-8.25 c 0,0 0.04,-195.85 0.04,-197.22 z"
           class="cls-2"
           inkscape:connector-curvature="0"
           style="fill:#ffe500" />
      </g>
      <g
         data-name="C  hell+dunkel"
         id="C_hell_dunkel">
        <path
           id="path8418"
           d="m 243.76,348.32 -0.36,-0.2 a 233.31,233.31 0 0 1 -69.49,-60.45 c -19.48,-25.69 -29.78,-51.88 -29.78,-75.73 0,-14.7 3.75,-25.87 11.15,-33.19 10.94,-10.84 26.89,-10.68 34.56,-10.61 h 0.79 l 8.26,-8.18 v 0 h -10 c -13.55,0 -27.95,1.89 -39.31,12.28 -8.28,7.56 -13.82,21.56 -13.64,39.56 0.25,25.36 11.06,53.31 30.47,79 18.09,24 44,46.75 68.34,61.7 l 1.23,0.75 z"
           class="cls-3"
           inkscape:connector-curvature="0"
           style="fill:#fbba00" />
        <polygon
           id="polygon8420"
           points="243.75,348.32 235.96,353.28 243.75,367.77 "
           class="cls-3"
           style="fill:#fbba00" />
        <path
           id="path8422"
           d="m 190.62,151.72 c -10.71,0 -32.83,0 -47.75,15 -10,10 -15.14,25.18 -15.14,45 0,26.87 11.17,55.85 32.31,83.82 20.39,27 49,51.75 82.65,71.63 l 1.07,0.63 -7.76,-14.52 -1.23,-0.75 c -24.35,-14.95 -50.25,-37.71 -68.34,-61.7 -19.41,-25.74 -30.22,-53.69 -30.47,-79 -0.18,-18 5.36,-32 13.64,-39.56 11.37,-10.39 25.77,-12.28 39.31,-12.28 h 1.72 8.29 z"
           class="cls-2"
           inkscape:connector-curvature="0"
           style="fill:#ffe500" />
        <polyline
           id="polyline8424"
           points="198.88 159.96 272.59 159.94 280.84 151.73 190.62 151.72"
           class="cls-2"
           style="fill:#ffe500" />
      </g>
      <g
         data-name="F  dunkelgelb"
         id="F_dunkelgelb">
        <path
           id="path8427"
           d="m 198.87,159.94 c 0,54.62 0,117 0,117 l -8.23,8.25 h 16.47 c 0,0 0,-115.66 0,-117.06 h 73.77 v -16.4 l -8.25,8.22 z"
           class="cls-3"
           inkscape:connector-curvature="0"
           style="fill:#fbba00" />
        <path
           id="path8429"
           d="m 207.11,151.73 v 0 V 88 H 283 V 71.49 l -8.24,8.23 h -75.89 c 0,0.6 0,38.08 0,80.21 z"
           class="cls-3"
           inkscape:connector-curvature="0"
           style="fill:#fbba00" />
      </g>
      <g
         data-name="B  dunkelgelb"
         id="B_dunkelgelb">
        <path
           id="path8432"
           d="m 289.66,124 c 0,0 -12.1,0 1.26,0 13.36,0 27.17,11.2 27.17,29 0,17.8 -12,35.49 -26.29,47 -11.78,9.48 -31.4,18.73 -41.2,20.49 l 8.26,8.56 c 6.65,-3.34 22.25,-11.67 32.3,-17.94 l 13.49,-11.94 c 16.1,-15.79 21.93,-32.15 21.93,-45.62 a 41.8,41.8 0 0 0 -2.9,-15.63 35,35 0 0 0 -33.12,-22.14 h -48.27 l 8.34,8.22 z"
           class="cls-3"
           inkscape:connector-curvature="0"
           style="fill:#fbba00" />
        <polygon
           id="polygon8434"
           points="258.89,159.94 250.62,159.94 250.61,320.04 258.91,305.61 "
           class="cls-3"
           style="fill:#fbba00" />
        <polygon
           id="polygon8436"
           points="250.62,159.94 258.89,151.72 258.89,132.14 250.63,124 "
           class="cls-3"
           style="fill:#fbba00" />
        <path
           id="path8438"
           d="m 317.39,243.1 c 0,14.39 -5.45,29.84 -23.09,47.36 C 276.66,307.98 250.61,320 250.61,320 l -8.32,14.47 1,-0.48 c 63.51,-30.08 79.86,-62.38 82.39,-84.18 a 55.93,55.93 0 0 0 0.37,-6.45 57.18,57.18 0 0 0 -21.42,-44.25 l -13.08,0.81 c 0,0 25.84,16.62 25.84,43.18 z"
           class="cls-3"
           inkscape:connector-curvature="0"
           style="fill:#fbba00" />
      </g>
      <g
         data-name="B  Verläufe"
         id="B_Verläufe">
        <path
           id="path8441"
           d="m 304.64,199.16 c 16.1,-15.79 21.93,-32.15 21.93,-45.62 a 41.8,41.8 0 0 0 -2.9,-15.63 35,35 0 0 0 -33.12,-22.14 h -48.26 l 8.34,8.22 h 39 c 0,0 -12.1,0 1.26,0 13.36,0 27.17,11.2 27.17,29 0,17.8 -12,35.47 -26.27,47"
           class="cls-8"
           inkscape:connector-curvature="0"
           style="fill:url(#linear-gradient)" />
        <path
           id="path8443"
           d="m 291.57,200.17 c -11.8,9.42 -31.24,18.57 -41,20.32 l 8.26,8.56 c 6.65,-3.34 22.25,-11.67 32.3,-17.94 z"
           class="cls-3"
           inkscape:connector-curvature="0"
           style="fill:#fbba00" />
        <path
           id="path8445"
           d="m 317.39,243.1 c 0,14.39 -5.45,29.84 -23.09,47.36 C 276.66,307.98 250.61,320 250.61,320 l -8.32,14.47 1,-0.48 c 63.51,-30.08 79.86,-62.38 82.39,-84.18 a 55.93,55.93 0 0 0 0.37,-6.45 57.18,57.18 0 0 0 -21.42,-44.25 l -13.08,0.81 c 0,0 25.84,16.62 25.84,43.18 z"
           class="cls-3"
           inkscape:connector-curvature="0"
           style="fill:#fbba00" />
        <path
           id="path8447"
           d="m 294.3,290.46 c 17.64,-17.52 23.09,-33 23.09,-47.36 0,-26.56 -25.83,-43.12 -25.83,-43.12 l -0.41,11.13 c 11.76,9.73 17.73,20.78 17.73,32.92 q 0,1.89 -0.19,3.8 c -2,20.29 -21.07,42.34 -49.78,57.78 l -8.3,14.39 c 0,0 26.05,-12 43.69,-29.54 z"
           class="cls-2"
           inkscape:connector-curvature="0"
           style="fill:#ffe500" />
        <path
           id="path8449"
           d="m 318.08,153 c 0,-17.79 -13.81,-29 -27.17,-29 -13.36,0 -1.26,0 -1.26,0 h -39 l 8.26,8.15 h 29.69 c 10.59,0 18.44,6.29 20.48,16.41 a 27.82,27.82 0 0 1 0.54,5.51 c 0,17.27 -15.05,39.43 -50.74,54.74 l -8.3,11.69 c 9.8,-1.76 29.42,-11 41.2,-20.49 14.3,-11.51 26.3,-29.21 26.3,-47.01 z"
           class="cls-9"
           inkscape:connector-curvature="0"
           style="fill:url(#linear-gradient-2)" />
      </g>
      <g
         data-name="B  hellgelb"
         id="B_hellgelb">
        <path
           id="path8452"
           d="m 242.29,168.18 c 0,32 0,83.45 0,166.34 L 250.61,320 V 159.94 Z"
           class="cls-2"
           inkscape:connector-curvature="0"
           style="fill:#ffe500" />
        <path
           id="path8454"
           d="M 250.62,159.94 V 124 l -8.34,-8.22 c 0,0 0,-8.19 0,44.16 z"
           class="cls-2"
           inkscape:connector-curvature="0"
           style="fill:#ffe500" />
      </g>
      <g
         id="Ball_Schatten">
        <path
           id="path8457"
           d="M 130.51,157.16 V 157.1 C 129.14,143.17 120.25,126.39 110.87,117 l -8.48,-8.68 c -5.49,-5.43 -14.09,-10 -21.36,-13 -0.26,34.47 4.74,90.29 12.19,118.38 0.32,1.24 0.66,2.45 1,3.68 a 59,59 0 0 0 36.59,-54.52 c 0,-1.83 -0.1,-3.64 -0.26,-5.43 a 1.52,1.52 0 0 0 -0.04,-0.27 z"
           class="cls-7"
           inkscape:connector-curvature="0"
           style="fill:#af0d1c" />
        <path
           id="path8459"
           d="m 72.84,106.56 a 57.86,57.86 0 0 0 -8.15,0.6 c 0.75,35.4 5.51,83.89 12.61,110.73 0.28,1.11 0.59,2.2 0.88,3.3 a 57.13,57.13 0 0 0 8.1,-1.33 C 77.65,186.79 73.29,140.53 72.84,106.56 Z"
           class="cls-3"
           inkscape:connector-curvature="0"
           style="fill:#fbba00" />
        <path
           id="path8461"
           d="m 86.29,219.85 a 57,57 0 0 0 7.9,-2.5 c -0.32,-1.2 -0.66,-2.4 -1,-3.61 C 86.54,188.66 81.85,141.5 81.1,107.14 a 57.91,57.91 0 0 0 -8.18,-0.59 h -0.11 c 0.48,33.98 4.84,80.24 13.48,113.3 z"
           class="cls-10"
           inkscape:connector-curvature="0"
           style="fill:#f39200" />
      </g>
      <g
         id="BALL_FLÄCHE">
        <circle
           id="circle8464"
           r="57.439999"
           cy="149.98"
           cx="58.939999"
           class="cls-2"
           style="fill:#ffe500" />
        <path
           id="path8466"
           d="M 57.68,150"
           class="cls-2"
           inkscape:connector-curvature="0"
           style="fill:#ffe500" />
      </g>
      <g
         data-name="BALL_SCHATTEN"
         id="BALL_SCHATTEN-2">
        <path
           id="path8469"
           d="m 84.08,98.33 c 5.83,9 6.39,14.25 6.39,25.76 A 57.44,57.44 0 0 1 33,181.52 c -11.51,0 -18.4,-4.22 -27.38,-10.05"
           class="cls-11"
           inkscape:connector-curvature="0"
           style="fill:none;stroke:#ffe500;stroke-width:0.5px" />
        <path
           id="path8471"
           d="m 5.69,171.54 c 9,5.87 15.89,10.12 27.42,10.14 a 57.31,57.31 0 0 0 57.52,-57.55 c 0,-11.51 -0.64,-16.8 -6.5,-25.78"
           class="cls-11"
           inkscape:connector-curvature="0"
           style="fill:none;stroke:#ffe500;stroke-width:0.5px" />
        <path
           id="path8473"
           d="m 5.72,171.6 c 9,5.91 15.91,10.18 27.45,10.24 a 57.25,57.25 0 0 0 57.6,-57.66 c -0.06,-11.52 -0.72,-16.84 -6.61,-25.8"
           class="cls-12"
           inkscape:connector-curvature="0"
           style="fill:none;stroke:#ffe400;stroke-width:0.5px" />
        <path
           id="path8475"
           d="m 5.76,171.67 c 9,5.94 15.94,10.25 27.49,10.33 A 57.19,57.19 0 0 0 90.93,124.22 C 90.85,112.7 90.13,107.35 84.21,98.4"
           class="cls-12"
           inkscape:connector-curvature="0"
           style="fill:none;stroke:#ffe400;stroke-width:0.5px" />
        <path
           id="path8477"
           d="m 5.79,171.73 c 8.95,6 16,10.32 27.52,10.42 A 57.14,57.14 0 0 0 91.07,124.26 C 90.96,112.74 90.2,107.35 84.24,98.42"
           class="cls-13"
           inkscape:connector-curvature="0"
           style="fill:none;stroke:#ffe300;stroke-width:0.5px" />
        <path
           id="path8479"
           d="m 5.82,171.79 c 8.94,6 16,10.39 27.55,10.51 a 57.09,57.09 0 0 0 56.31,-43.88 57.52,57.52 0 0 0 1.54,-14.13 c -0.14,-11.53 -1,-16.94 -6.94,-25.86"
           class="cls-13"
           inkscape:connector-curvature="0"
           style="fill:none;stroke:#ffe300;stroke-width:0.5px" />
        <path
           id="path8481"
           d="m 5.86,171.86 c 8.93,6.06 16,10.45 27.59,10.61 a 57,57 0 0 0 56.42,-44 57.48,57.48 0 0 0 1.51,-14.16 c -0.17,-11.53 -1,-17 -7,-25.88"
           class="cls-14"
           inkscape:connector-curvature="0"
           style="fill:none;stroke:#ffe200;stroke-width:0.5px" />
        <path
           id="path8483"
           d="m 5.89,171.92 c 8.92,6.09 16,10.52 27.62,10.7 a 57,57 0 0 0 56.54,-44 57.46,57.46 0 0 0 1.47,-14.2 c -0.2,-11.53 -1.11,-17 -7.16,-25.9"
           class="cls-14"
           inkscape:connector-curvature="0"
           style="fill:none;stroke:#ffe200;stroke-width:0.5px" />
        <path
           id="path8485"
           d="m 5.92,172 c 8.91,6.13 16,10.59 27.66,10.79 a 56.94,56.94 0 0 0 56.65,-44.11 57.45,57.45 0 0 0 1.44,-14.23 C 91.44,112.91 90.48,107.4 84.4,98.53"
           class="cls-15"
           inkscape:connector-curvature="0"
           style="fill:none;stroke:#ffe100;stroke-width:0.5px" />
        <path
           id="path8487"
           d="m 6,172.05 c 8.9,6.17 16.06,10.66 27.69,10.89 a 56.89,56.89 0 0 0 56.77,-44.19 57.9,57.9 0 0 0 1.41,-14.27 C 91.59,112.94 90.6,107.39 84.49,98.54"
           class="cls-15"
           inkscape:connector-curvature="0"
           style="fill:none;stroke:#ffe100;stroke-width:0.5px" />
        <path
           id="path8489"
           d="m 6,172.12 c 8.89,6.21 16.08,10.72 27.73,11 A 56.84,56.84 0 0 0 90.6,138.83 58,58 0 0 0 92,124.52 c -0.31,-11.54 -1.35,-17.12 -7.48,-26"
           class="cls-16"
           inkscape:connector-curvature="0"
           style="fill:none;stroke:#ffe000;stroke-width:0.5px" />
        <path
           id="path8491"
           d="m 6,172.18 c 8.88,6.25 16.1,10.79 27.76,11.07 a 57.51,57.51 0 0 0 11.63,-0.87 56.93,56.93 0 0 0 45.37,-43.47 58,58 0 0 0 1.34,-14.34 c -0.34,-11.54 -1.42,-17.16 -7.59,-26"
           class="cls-16"
           inkscape:connector-curvature="0"
           style="fill:none;stroke:#ffe000;stroke-width:0.5px" />
        <path
           id="path8493"
           d="m 6.06,172.24 c 8.87,6.28 16.12,10.86 27.79,11.16 A 57.5,57.5 0 0 0 45.51,182.55 56.88,56.88 0 0 0 91,139 58,58 0 0 0 92.31,124.63 c -0.37,-11.55 -1.5,-17.19 -7.7,-26"
           class="cls-17"
           inkscape:connector-curvature="0"
           style="fill:none;stroke:#ffdf00;stroke-width:0.5px" />
        <path
           id="path8495"
           d="m 6.09,172.31 c 8.86,6.32 16.14,10.93 27.83,11.26 a 57.43,57.43 0 0 0 11.69,-0.83 56.84,56.84 0 0 0 45.54,-43.67 58,58 0 0 0 1.27,-14.41 c -0.4,-11.55 -1.58,-17.23 -7.81,-26"
           class="cls-17"
           inkscape:connector-curvature="0"
           style="fill:none;stroke:#ffdf00;stroke-width:0.5px" />
        <path
           id="path8497"
           d="m 6.13,172.37 c 8.85,6.36 16.16,11 27.86,11.35 A 57.45,57.45 0 0 0 45.7,182.91 56.8,56.8 0 0 0 91.33,139.14 58,58 0 0 0 92.57,124.7 C 92.14,113.15 90.91,107.44 84.65,98.65"
           class="cls-18"
           inkscape:connector-curvature="0"
           style="fill:none;stroke:#ffde00;stroke-width:0.5px" />
        <path
           id="path8499"
           d="m 6.16,172.44 c 8.84,6.4 16.18,11.06 27.9,11.44 a 57.43,57.43 0 0 0 11.74,-0.79 56.75,56.75 0 0 0 45.71,-43.87 58.09,58.09 0 0 0 1.21,-14.48 c -0.46,-11.56 -1.74,-17.3 -8,-26.07"
           class="cls-18"
           inkscape:connector-curvature="0"
           style="fill:none;stroke:#ffde00;stroke-width:0.5px" />
        <path
           id="path8501"
           d="M 6.19,172.5 C 15,178.94 22.4,183.63 34.12,184 a 57.38,57.38 0 0 0 11.77,-0.77 56.71,56.71 0 0 0 45.8,-44 58.11,58.11 0 0 0 1.17,-14.52 C 92.37,113.15 91.04,107.37 84.72,98.62"
           class="cls-19"
           inkscape:connector-curvature="0"
           style="fill:none;stroke:#ffdd00;stroke-width:0.5px" />
        <path
           id="path8503"
           d="m 6.23,172.57 c 8.82,6.47 16.22,11.2 28,11.63 A 57.42,57.42 0 0 0 46.03,183.46 56.67,56.67 0 0 0 91.92,139.39 58.14,58.14 0 0 0 93,124.83 C 92.48,113.27 91.1,107.46 84.75,98.72"
           class="cls-19"
           inkscape:connector-curvature="0"
           style="fill:none;stroke:#ffdd00;stroke-width:0.5px" />
        <path
           id="path8505"
           d="m 6.26,172.63 c 8.81,6.51 16.24,11.26 28,11.72 a 57.34,57.34 0 0 0 11.83,-0.72 56.63,56.63 0 0 0 46,-44.17 58.13,58.13 0 0 0 1.11,-14.59 c -0.55,-11.56 -2,-17.41 -8.36,-26.13"
           class="cls-20"
           inkscape:connector-curvature="0"
           style="fill:none;stroke:#ffdc00;stroke-width:0.5px" />
        <path
           id="path8507"
           d="m 6.29,172.69 c 8.8,6.55 16.27,11.33 28,11.81 a 57.32,57.32 0 0 0 11.86,-0.7 56.6,56.6 0 0 0 46.06,-44.27 58.16,58.16 0 0 0 1.07,-14.62 C 92.7,113.34 91.23,107.47 84.81,98.75"
           class="cls-20"
           inkscape:connector-curvature="0"
           style="fill:none;stroke:#ffdc00;stroke-width:0.5px" />
        <path
           id="path8509"
           d="m 6.33,172.76 c 8.79,6.59 16.29,11.4 28.07,11.91 a 57.35,57.35 0 0 0 11.88,-0.67 56.56,56.56 0 0 0 46.14,-44.37 58.18,58.18 0 0 0 1,-14.66 C 92.81,113.4 91.29,107.49 84.84,98.79"
           class="cls-21"
           inkscape:connector-curvature="0"
           style="fill:none;stroke:#ffdb00;stroke-width:0.5px" />
        <path
           id="path8511"
           d="m 6.36,172.82 c 8.78,6.62 16.31,11.47 28.1,12 a 57.34,57.34 0 0 0 11.92,-0.66 56.53,56.53 0 0 0 46.23,-44.46 58.19,58.19 0 0 0 1,-14.69 C 92.97,113.44 91.4,107.5 84.92,98.81"
           class="cls-21"
           inkscape:connector-curvature="0"
           style="fill:none;stroke:#ffdb00;stroke-width:0.5px" />
        <path
           id="path8513"
           d="m 6.39,172.89 c 8.77,6.66 16.33,11.53 28.13,12.09 a 57.3,57.3 0 0 0 11.94,-0.64 56.49,56.49 0 0 0 46.32,-44.57 58.21,58.21 0 0 0 1,-14.73 c -0.67,-11.58 -2.29,-17.55 -8.8,-26.22"
           class="cls-21"
           inkscape:connector-curvature="0"
           style="fill:none;stroke:#ffdb00;stroke-width:0.5px" />
        <path
           id="path8515"
           d="m 6.43,173 c 8.76,6.7 16.35,11.6 28.17,12.18 a 57.28,57.28 0 0 0 12,-0.61 56.46,56.46 0 0 0 46.4,-44.71 58.21,58.21 0 0 0 0.94,-14.76 c -0.7,-11.58 -2.37,-17.58 -8.91,-26.24"
           class="cls-22"
           inkscape:connector-curvature="0"
           style="fill:none;stroke:#ffda00;stroke-width:0.5px" />
        <path
           id="path8517"
           d="m 6.46,173 c 8.75,6.74 16.37,11.67 28.2,12.28 a 57.27,57.27 0 0 0 12,-0.59 56.43,56.43 0 0 0 46.49,-44.77 58.23,58.23 0 0 0 0.91,-14.8 c -0.73,-11.58 -2.44,-17.62 -9,-26.26"
           class="cls-22"
           inkscape:connector-curvature="0"
           style="fill:none;stroke:#ffda00;stroke-width:0.5px" />
        <path
           id="path8519"
           d="m 6.5,173.08 c 8.74,6.77 16.39,11.71 28.24,12.37 a 57.77,57.77 0 0 0 12,-0.57 56.4,56.4 0 0 0 46.6,-44.88 58.23,58.23 0 0 0 0.87,-14.83 C 93.45,113.59 91.69,107.52 85.08,98.89"
           class="cls-23"
           inkscape:connector-curvature="0"
           style="fill:none;stroke:#ffd900;stroke-width:0.5px" />
        <path
           id="path8521"
           d="m 6.53,173.15 c 8.73,6.81 16.41,11.78 28.27,12.46 a 57.79,57.79 0 0 0 12.06,-0.55 56.37,56.37 0 0 0 46.66,-45 58.28,58.28 0 0 0 0.84,-14.87 C 93.57,113.6 91.76,107.5 85.12,98.89"
           class="cls-23"
           inkscape:connector-curvature="0"
           style="fill:none;stroke:#ffd900;stroke-width:0.5px" />
        <path
           id="path8523"
           d="m 6.56,173.21 c 8.72,6.85 16.43,11.85 28.31,12.56 A 57.8,57.8 0 0 0 47,185.24 56.34,56.34 0 0 0 93.7,140.17 58.3,58.3 0 0 0 94.51,125.27 C 93.69,113.68 91.83,107.54 85.16,98.95"
           class="cls-24"
           inkscape:connector-curvature="0"
           style="fill:none;stroke:#ffd800;stroke-width:0.5px" />
        <path
           id="path8525"
           d="m 6.6,173.27 c 8.71,6.89 16.45,11.91 28.34,12.65 a 57.79,57.79 0 0 0 12.12,-0.51 56.31,56.31 0 0 0 46.83,-45.17 58.3,58.3 0 0 0 0.77,-14.94 C 93.81,113.71 91.9,107.54 85.21,98.96"
           class="cls-24"
           inkscape:connector-curvature="0"
           style="fill:none;stroke:#ffd800;stroke-width:0.5px" />
        <path
           id="path8527"
           d="m 6.63,173.34 c 8.7,6.93 16.47,12 28.37,12.74 a 57.76,57.76 0 0 0 12.15,-0.48 56.28,56.28 0 0 0 46.92,-45.27 58.29,58.29 0 0 0 0.74,-15 c -0.88,-11.6 -2.84,-17.8 -9.56,-26.37"
           class="cls-25"
           inkscape:connector-curvature="0"
           style="fill:none;stroke:#ffd700;stroke-width:0.5px" />
        <path
           id="path8529"
           d="m 6.66,173.4 c 8.69,7 16.49,12 28.41,12.83 a 57.77,57.77 0 0 0 12.18,-0.46 56.26,56.26 0 0 0 47,-45.37 58.3,58.3 0 0 0 0.71,-15 C 94,113.8 92,107.57 85.29,99"
           class="cls-25"
           inkscape:connector-curvature="0"
           style="fill:none;stroke:#ffd700;stroke-width:0.5px" />
        <path
           id="path8531"
           d="m 6.7,173.47 c 8.68,7 16.52,12.11 28.44,12.93 a 57.76,57.76 0 0 0 12.2,-0.44 56.23,56.23 0 0 0 47.09,-45.47 58.31,58.31 0 0 0 0.67,-15 c -0.94,-11.6 -3,-17.87 -9.78,-26.41"
           class="cls-26"
           inkscape:connector-curvature="0"
           style="fill:none;stroke:#ffd600;stroke-width:0.5px" />
        <path
           id="path8533"
           d="m 6.73,173.53 c 8.67,7 16.54,12.18 28.48,13 a 57.75,57.75 0 0 0 12.23,-0.42 56.21,56.21 0 0 0 47.18,-45.56 58.32,58.32 0 0 0 0.64,-15.08 c -1,-11.6 -3.07,-17.9 -9.89,-26.43"
           class="cls-26"
           inkscape:connector-curvature="0"
           style="fill:none;stroke:#ffd600;stroke-width:0.5px" />
        <path
           id="path8535"
           d="m 6.76,173.6 c 8.66,7.08 16.56,12.25 28.51,13.11 a 57.77,57.77 0 0 0 12.26,-0.4 56.19,56.19 0 0 0 47.27,-45.66 58.32,58.32 0 0 0 0.61,-15.11 c -1,-11.61 -3.15,-17.94 -10,-26.45"
           class="cls-27"
           inkscape:connector-curvature="0"
           style="fill:none;stroke:#ffd500;stroke-width:0.5px" />
        <path
           id="path8537"
           d="m 6.8,173.66 c 8.65,7.12 16.58,12.31 28.54,13.21 A 57.76,57.76 0 0 0 47.63,186.49 56.16,56.16 0 0 0 95,140.73 58.32,58.32 0 0 0 95.58,125.58 c -1,-11.61 -3.23,-18 -10.11,-26.47"
           class="cls-27"
           inkscape:connector-curvature="0"
           style="fill:none;stroke:#ffd500;stroke-width:0.5px" />
        <path
           id="path8539"
           d="m 6.83,173.73 c 8.64,7.15 16.6,12.38 28.58,13.3 a 57.72,57.72 0 0 0 12.32,-0.35 56.14,56.14 0 0 0 47.44,-45.86 58.31,58.31 0 0 0 0.54,-15.18 c -1.06,-11.61 -3.31,-18 -10.22,-26.49"
           class="cls-28"
           inkscape:connector-curvature="0"
           style="fill:none;stroke:#ffd400;stroke-width:0.5px" />
        <path
           id="path8541"
           d="m 6.86,173.79 c 8.63,7.19 16.62,12.45 28.61,13.39 a 57.78,57.78 0 0 0 12.35,-0.33 56.12,56.12 0 0 0 47.52,-46 58.34,58.34 0 0 0 0.51,-15.22 c -1.09,-11.62 -3.39,-18 -10.33,-26.51"
           class="cls-28"
           inkscape:connector-curvature="0"
           style="fill:none;stroke:#ffd400;stroke-width:0.5px" />
        <path
           id="path8543"
           d="m 6.9,173.85 c 8.62,7.23 16.64,12.51 28.65,13.48 A 57.72,57.72 0 0 0 47.92,187 56.1,56.1 0 0 0 95.53,141 58.38,58.38 0 0 0 96,125.71 C 94.88,114.09 92.54,107.63 85.56,99.18"
           class="cls-29"
           inkscape:connector-curvature="0"
           style="fill:none;stroke:#ffd300;stroke-width:0.5px" />
        <path
           id="path8545"
           d="m 6.93,173.92 c 8.61,7.27 16.66,12.58 28.68,13.58 A 57.71,57.71 0 0 0 48,187.21 56.08,56.08 0 0 0 95.72,141 58.36,58.36 0 0 0 96.16,125.71 C 95,114.13 92.61,107.64 85.61,99.2"
           class="cls-29"
           inkscape:connector-curvature="0"
           style="fill:none;stroke:#ffd300;stroke-width:0.5px" />
        <path
           id="path8547"
           d="m 7,174 c 8.6,7.3 16.68,12.65 28.72,13.67 A 57.74,57.74 0 0 0 48.16,187.4 56.07,56.07 0 0 0 95.9,141.12 58.35,58.35 0 0 0 96.31,125.79 C 95.13,114.17 92.69,107.64 85.65,99.21"
           class="cls-30"
           inkscape:connector-curvature="0"
           style="fill:none;stroke:#ffd200;stroke-width:0.5px" />
        <path
           id="path8549"
           d="m 7,174 c 8.59,7.34 16.7,12.71 28.75,13.76 a 57.73,57.73 0 0 0 12.46,-0.24 56,56 0 0 0 47.87,-46.32 58.35,58.35 0 0 0 0.37,-15.36 c -1.21,-11.63 -3.7,-18.19 -10.77,-26.6"
           class="cls-30"
           inkscape:connector-curvature="0"
           style="fill:none;stroke:#ffd200;stroke-width:0.5px" />
        <path
           id="path8551"
           d="m 7,174.11 c 8.58,7.38 16.72,12.78 28.78,13.85 a 57.72,57.72 0 0 0 12.49,-0.22 56,56 0 0 0 48,-46.46 58.35,58.35 0 0 0 0.34,-15.4 C 95.37,114.25 92.83,107.66 85.73,99.26"
           class="cls-31"
           inkscape:connector-curvature="0"
           style="fill:none;stroke:#ffd100;stroke-width:0.5px" />
        <path
           id="path8553"
           d="m 7.07,174.18 c 8.57,7.42 16.74,12.85 28.82,13.95 a 57.71,57.71 0 0 0 12.52,-0.2 56,56 0 0 0 48,-46.56 58.37,58.37 0 0 0 0.31,-15.43 c -1.27,-11.63 -3.86,-18.26 -11,-26.64"
           class="cls-32"
           inkscape:connector-curvature="0"
           style="fill:none;stroke:#ffd000;stroke-width:0.5px" />
        <path
           id="path8555"
           d="m 7.1,174.24 c 8.56,7.46 16.76,12.92 28.85,14 A 57.71,57.71 0 0 0 48.5,188.06 56,56 0 0 0 96.63,141.4 58.37,58.37 0 0 0 96.9,126 C 95.6,114.36 92.96,107.71 85.8,99.34"
           class="cls-32"
           inkscape:connector-curvature="0"
           style="fill:none;stroke:#ffd000;stroke-width:0.5px" />
        <path
           id="path8557"
           d="m 7.13,174.3 c 8.55,7.49 16.79,13 28.89,14.13 a 57.69,57.69 0 0 0 12.58,-0.16 56,56 0 0 0 48.21,-46.76 58.36,58.36 0 0 0 0.24,-15.5 c -1.33,-11.64 -4,-18.33 -11.21,-26.68"
           class="cls-33"
           inkscape:connector-curvature="0"
           style="fill:none;stroke:#ffcf00;stroke-width:0.5px" />
        <path
           id="path8559"
           d="m 7.17,174.37 c 8.54,7.53 16.81,13 28.92,14.23 A 57.68,57.68 0 0 0 48.7,188.46 56,56 0 0 0 97,141.6 58.36,58.36 0 0 0 97.21,126.06 C 95.85,114.42 93.12,107.7 85.9,99.36"
           class="cls-33"
           inkscape:connector-curvature="0"
           style="fill:none;stroke:#ffcf00;stroke-width:0.5px" />
        <path
           id="path8561"
           d="m 7.2,174.43 c 8.53,7.57 16.83,13.12 29,14.32 a 57.71,57.71 0 0 0 12.64,-0.11 56,56 0 0 0 48.39,-47 58.37,58.37 0 0 0 0.18,-15.57 C 96,114.46 93.18,107.7 85.93,99.38"
           class="cls-34"
           inkscape:connector-curvature="0"
           style="fill:none;stroke:#ffce00;stroke-width:0.5px" />
        <path
           id="path8563"
           d="m 7.23,174.5 c 8.52,7.61 16.85,13.18 29,14.41 a 57.67,57.67 0 0 0 12.67,-0.09 56,56 0 0 0 48.47,-47.06 58.35,58.35 0 0 0 0.14,-15.61 C 96.09,114.5 93.25,107.71 86,99.4"
           class="cls-34"
           inkscape:connector-curvature="0"
           style="fill:none;stroke:#ffce00;stroke-width:0.5px" />
        <path
           id="path8565"
           d="m 7.27,174.56 c 8.51,7.64 16.87,13.25 29,14.5 A 57.69,57.69 0 0 0 49,189 55.94,55.94 0 0 0 97.56,141.84 58.35,58.35 0 0 0 97.67,126.2 C 96.21,114.54 93.32,107.72 86,99.43"
           class="cls-35"
           inkscape:connector-curvature="0"
           style="fill:none;stroke:#ffcd00;stroke-width:0.5px" />
        <path
           id="path8567"
           d="m 7.3,174.63 c 8.5,7.68 16.89,13.32 29.06,14.6 a 57.62,57.62 0 0 0 12.72,0 55.93,55.93 0 0 0 48.64,-47.26 58.35,58.35 0 0 0 0.08,-15.68 C 96.33,114.64 93.39,107.78 86.05,99.5"
           class="cls-35"
           inkscape:connector-curvature="0"
           style="fill:none;stroke:#ffcd00;stroke-width:0.5px" />
        <path
           id="path8569"
           d="m 7.33,174.69 c 8.49,7.72 16.91,13.38 29.09,14.69 a 57.65,57.65 0 0 0 12.75,0 55.92,55.92 0 0 0 48.74,-47.38 58.33,58.33 0 0 0 0,-15.71 C 96.41,114.64 93.43,107.75 86.05,99.48"
           class="cls-36"
           inkscape:connector-curvature="0"
           style="fill:none;stroke:#ffcc00;stroke-width:0.5px" />
        <path
           id="path8571"
           d="m 7.37,174.75 c 8.48,7.76 16.93,13.45 29.12,14.78 a 57.68,57.68 0 0 0 12.78,0 55.91,55.91 0 0 0 48.82,-47.46 58.33,58.33 0 0 0 0,-15.75 c -1.53,-11.66 -4.56,-18.58 -12,-26.83"
           class="cls-36"
           inkscape:connector-curvature="0"
           style="fill:none;stroke:#ffcc00;stroke-width:0.5px" />
        <path
           id="path8573"
           d="m 7.4,174.82 c 8.47,7.8 17,13.52 29.16,14.88 a 57.63,57.63 0 0 0 12.81,0 55.9,55.9 0 0 0 48.9,-47.56 58.32,58.32 0 0 0 0,-15.78 C 96.71,114.7 93.63,107.75 86.19,99.51"
           class="cls-37"
           inkscape:connector-curvature="0"
           style="fill:none;stroke:#ffcb00;stroke-width:0.5px" />
        <path
           id="path8575"
           d="m 7.44,174.88 c 8.46,7.83 17,13.59 29.19,15 a 57.62,57.62 0 0 0 12.84,0 55.89,55.89 0 0 0 49,-47.66 58.32,58.32 0 0 0 -0.06,-15.82 C 96.82,114.74 93.69,107.75 86.22,99.53"
           class="cls-37"
           inkscape:connector-curvature="0"
           style="fill:none;stroke:#ffcb00;stroke-width:0.5px" />
        <path
           id="path8577"
           d="m 7.47,174.95 c 8.45,7.87 17,13.65 29.23,15.06 a 57.62,57.62 0 0 0 12.87,0.06 55.89,55.89 0 0 0 49.08,-47.76 58.3,58.3 0 0 0 -0.09,-15.85 c -1.62,-11.67 -4.8,-18.68 -12.3,-26.89"
           class="cls-38"
           inkscape:connector-curvature="0"
           style="fill:none;stroke:#ffca00;stroke-width:0.5px" />
        <path
           id="path8579"
           d="m 7.5,175 c 8.44,7.91 17,13.72 29.26,15.15 a 57.61,57.61 0 0 0 12.9,0.08 55.88,55.88 0 0 0 49.16,-47.86 58.28,58.28 0 0 0 -0.12,-15.89 C 97.05,114.81 93.82,107.76 86.29,99.57"
           class="cls-38"
           inkscape:connector-curvature="0"
           style="fill:none;stroke:#ffca00;stroke-width:0.5px" />
        <path
           id="path8581"
           d="m 7.54,175.08 c 8.43,7.95 17,13.79 29.3,15.25 a 57.61,57.61 0 0 0 12.93,0.1 55.88,55.88 0 0 0 49.25,-48 58.3,58.3 0 0 0 -0.16,-15.92 c -1.67,-11.67 -5,-18.75 -12.52,-26.93"
           class="cls-39"
           inkscape:connector-curvature="0"
           style="fill:none;stroke:#fec900;stroke-width:0.5px" />
        <path
           id="path8583"
           d="m 7.57,175.14 c 8.42,8 17.05,13.86 29.33,15.34 a 57.6,57.6 0 0 0 13,0.12 55.87,55.87 0 0 0 49.33,-48.06 58.28,58.28 0 0 0 -0.19,-16 c -1.7,-11.67 -5,-18.79 -12.63,-27"
           class="cls-40"
           inkscape:connector-curvature="0"
           style="fill:none;stroke:#fec800;stroke-width:0.5px" />
        <path
           id="path8585"
           d="m 7.6,175.21 c 8.41,8 17.08,13.92 29.36,15.43 a 57.6,57.6 0 0 0 13,0.15 55.87,55.87 0 0 0 49.42,-48.16 58.28,58.28 0 0 0 -0.22,-16 C 97.42,115 94,107.81 86.41,99.65"
           class="cls-40"
           inkscape:connector-curvature="0"
           style="fill:none;stroke:#fec800;stroke-width:0.5px" />
        <path
           id="path8587"
           d="m 7.64,175.27 c 8.4,8.06 17.1,14 29.4,15.53 A 57.56,57.56 0 0 0 50,191 55.86,55.86 0 0 0 99.55,142.7 58.29,58.29 0 0 0 99.29,126.7 C 97.53,115.02 94.1,107.84 86.44,99.7"
           class="cls-41"
           inkscape:connector-curvature="0"
           style="fill:none;stroke:#fec700;stroke-width:0.5px" />
        <path
           id="path8589"
           d="m 7.67,175.33 c 8.39,8.1 17.12,14.06 29.43,15.62 a 57.59,57.59 0 0 0 13,0.19 55.86,55.86 0 0 0 49.59,-48.36 58.27,58.27 0 0 0 -0.29,-16.07 c -1.79,-11.68 -5.27,-18.9 -13,-27"
           class="cls-41"
           inkscape:connector-curvature="0"
           style="fill:none;stroke:#fec700;stroke-width:0.5px" />
        <path
           id="path8591"
           d="m 7.7,175.4 c 8.38,8.14 17.14,14.12 29.47,15.71 a 57.56,57.56 0 0 0 13.07,0.21 55.86,55.86 0 0 0 49.68,-48.46 58.26,58.26 0 0 0 -0.32,-16.1 c -1.82,-11.68 -5.35,-18.93 -13.06,-27"
           class="cls-42"
           inkscape:connector-curvature="0"
           style="fill:none;stroke:#fec600;stroke-width:0.5px" />
        <path
           id="path8593"
           d="m 7.74,175.46 c 8.37,8.17 17.16,14.19 29.5,15.8 a 57.55,57.55 0 0 0 13.1,0.23 55.86,55.86 0 0 0 49.77,-48.56 58.24,58.24 0 0 0 -0.36,-16.14 C 97.9,115.1 94.32,107.79 86.58,99.73"
           class="cls-42"
           inkscape:connector-curvature="0"
           style="fill:none;stroke:#fec600;stroke-width:0.5px" />
        <path
           id="path8595"
           d="m 7.77,175.53 c 8.36,8.21 17.18,14.26 29.53,15.9 A 57.57,57.57 0 0 0 50.43,191.68 55.85,55.85 0 0 0 100.29,143 58.23,58.23 0 0 0 99.9,126.83 c -1.87,-11.69 -5.5,-19 -13.28,-27.08"
           class="cls-43"
           inkscape:connector-curvature="0"
           style="fill:none;stroke:#fec500;stroke-width:0.5px" />
        <path
           id="path8597"
           d="m 7.81,175.59 c 8.35,8.25 17.2,14.33 29.57,16 a 57.54,57.54 0 0 0 13.16,0.28 55.86,55.86 0 0 0 49.94,-48.76 58.23,58.23 0 0 0 -0.42,-16.21 c -1.9,-11.69 -5.58,-19 -13.39,-27.1"
           class="cls-44"
           inkscape:connector-curvature="0"
           style="fill:none;stroke:#fdc500;stroke-width:0.5px" />
        <path
           id="path8599"
           d="m 7.84,175.66 c 8.34,8.29 17.22,14.39 29.6,16.08 a 57.54,57.54 0 0 0 13.19,0.3 55.85,55.85 0 0 0 50,-48.86 58.22,58.22 0 0 0 -0.46,-16.24 c -1.93,-11.7 -5.66,-19.07 -13.5,-27.12"
           class="cls-45"
           inkscape:connector-curvature="0"
           style="fill:none;stroke:#fdc400;stroke-width:0.5px" />
        <path
           id="path8601"
           d="m 7.87,175.72 c 8.33,8.28 17.24,14.46 29.64,16.18 a 57.54,57.54 0 0 0 13.21,0.32 55.86,55.86 0 0 0 50.11,-49 58.22,58.22 0 0 0 -0.49,-16.28 c -2,-11.7 -5.74,-19.11 -13.61,-27.14"
           class="cls-45"
           inkscape:connector-curvature="0"
           style="fill:none;stroke:#fdc400;stroke-width:0.5px" />
        <path
           id="path8603"
           d="m 7.91,175.78 c 8.32,8.36 17.26,14.53 29.67,16.27 a 57.53,57.53 0 0 0 13.24,0.34 55.86,55.86 0 0 0 50.18,-49.05 58.21,58.21 0 0 0 -0.52,-16.31 c -2,-11.7 -5.82,-19.14 -13.72,-27.16"
           class="cls-46"
           inkscape:connector-curvature="0"
           style="fill:none;stroke:#fdc300;stroke-width:0.5px" />
        <path
           id="path8605"
           d="m 7.94,175.85 c 8.31,8.4 17.28,14.59 29.71,16.36 a 57.53,57.53 0 0 0 13.27,0.36 55.86,55.86 0 0 0 50.28,-49.16 58.19,58.19 0 0 0 -0.56,-16.35 c -2,-11.71 -5.9,-19.18 -13.83,-27.19"
           class="cls-46"
           inkscape:connector-curvature="0"
           style="fill:none;stroke:#fdc300;stroke-width:0.5px" />
        <path
           id="path8607"
           d="m 8,175.91 c 8.3,8.44 17.3,14.66 29.74,16.45 a 57.5,57.5 0 0 0 13.3,0.38 55.86,55.86 0 0 0 50.37,-49.26 58.18,58.18 0 0 0 -0.59,-16.38 c -2,-11.71 -6,-19.21 -13.94,-27.21"
           class="cls-47"
           inkscape:connector-curvature="0"
           style="fill:none;stroke:#fdc200;stroke-width:0.5px" />
        <path
           id="path8609"
           d="m 8,176 c 8.29,8.48 17.32,14.73 29.77,16.55 a 57.53,57.53 0 0 0 13.33,0.41 55.86,55.86 0 0 0 50.45,-49.36 58.17,58.17 0 0 0 -0.62,-16.42 c -2.07,-11.71 -6.05,-19.25 -14,-27.23"
           class="cls-48"
           inkscape:connector-curvature="0"
           style="fill:none;stroke:#fdc100;stroke-width:0.5px" />
        <path
           id="path8611"
           d="m 8,176 c 8.28,8.51 17.35,14.8 29.81,16.64 a 57.49,57.49 0 0 0 13.36,0.43 55.87,55.87 0 0 0 50.54,-49.46 58.15,58.15 0 0 0 -0.66,-16.45 C 99,115.49 95,107.91 86.93,100"
           class="cls-48"
           inkscape:connector-curvature="0"
           style="fill:none;stroke:#fdc100;stroke-width:0.5px" />
        <path
           id="path8613"
           d="m 8.07,176.11 c 8.27,8.55 17.37,14.86 29.84,16.73 a 57.47,57.47 0 0 0 13.39,0.45 55.87,55.87 0 0 0 50.63,-49.56 58.13,58.13 0 0 0 -0.69,-16.49 C 99.11,115.53 95,107.92 87,100"
           class="cls-49"
           inkscape:connector-curvature="0"
           style="fill:none;stroke:#fdc000;stroke-width:0.5px" />
        <path
           id="path8615"
           d="M 8.11,176.17 C 16.37,184.76 25.5,191.1 38,193 a 57.48,57.48 0 0 0 13.42,0.47 55.88,55.88 0 0 0 50.71,-49.66 58.11,58.11 0 0 0 -0.72,-16.52 C 99.23,115.57 95.1,107.93 87,100"
           class="cls-50"
           inkscape:connector-curvature="0"
           style="fill:none;stroke:#fcc000;stroke-width:0.5px" />
        <path
           id="path8617"
           d="m 8.14,176.24 c 8.25,8.63 17.41,15 29.91,16.92 a 57.47,57.47 0 0 0 13.45,0.49 55.88,55.88 0 0 0 50.8,-49.75 58.12,58.12 0 0 0 -0.76,-16.56 C 99.35,115.62 95.17,107.95 87.05,100.03"
           class="cls-51"
           inkscape:connector-curvature="0"
           style="fill:none;stroke:#fcbf00;stroke-width:0.5px" />
        <path
           id="path8619"
           d="m 8.17,176.3 c 8.24,8.67 17.43,15.07 29.94,17 a 57.46,57.46 0 0 0 13.47,0.51 55.88,55.88 0 0 0 50.9,-49.81 58.09,58.09 0 0 0 -0.79,-16.6 c -2.21,-11.73 -6.45,-19.43 -14.6,-27.33"
           class="cls-51"
           inkscape:connector-curvature="0"
           style="fill:none;stroke:#fcbf00;stroke-width:0.5px" />
        <path
           id="path8621"
           d="m 8.21,176.36 c 8.23,8.7 17.45,15.13 30,17.1 a 57.47,57.47 0 0 0 13.5,0.54 55.89,55.89 0 0 0 51,-50 58.1,58.1 0 0 0 -0.82,-16.63 C 99.6,115.69 95.31,108 87.13,100.06"
           class="cls-52"
           inkscape:connector-curvature="0"
           style="fill:none;stroke:#fcbe00;stroke-width:0.5px" />
        <path
           id="path8623"
           d="m 8.24,176.43 c 8.22,8.74 17.47,15.2 30,17.2 a 57.44,57.44 0 0 0 13.53,0.56 55.9,55.9 0 0 0 51.06,-50.05 58.06,58.06 0 0 0 -0.86,-16.67 c -2.27,-11.73 -6.6,-19.5 -14.82,-27.38"
           class="cls-52"
           inkscape:connector-curvature="0"
           style="fill:none;stroke:#fcbe00;stroke-width:0.5px" />
        <path
           id="path8625"
           d="m 8.28,176.49 c 8.21,8.78 17.49,15.27 30,17.29 a 57.44,57.44 0 0 0 13.56,0.58 55.9,55.9 0 0 0 51.16,-50.15 58.06,58.06 0 0 0 -0.89,-16.7 c -2.3,-11.73 -6.68,-19.53 -14.92,-27.4"
           class="cls-53"
           inkscape:connector-curvature="0"
           style="fill:none;stroke:#fcbd00;stroke-width:0.5px" />
        <path
           id="path8627"
           d="m 8.31,176.56 c 8.2,8.82 17.51,15.34 30.08,17.38 a 57.44,57.44 0 0 0 13.59,0.6 55.91,55.91 0 0 0 51.23,-50.25 58.05,58.05 0 0 0 -0.92,-16.74 c -2.33,-11.74 -6.76,-19.57 -15,-27.42"
           class="cls-53"
           inkscape:connector-curvature="0"
           style="fill:none;stroke:#fcbd00;stroke-width:0.5px" />
        <path
           id="path8629"
           d="m 8.34,176.62 c 8.19,8.85 17.53,15.4 30.12,17.47 a 57.41,57.41 0 0 0 13.62,0.62 55.92,55.92 0 0 0 51.32,-50.35 58,58 0 0 0 -1,-16.77 c -2.35,-11.74 -6.84,-19.6 -15.14,-27.44"
           class="cls-54"
           inkscape:connector-curvature="0"
           style="fill:none;stroke:#fcbc00;stroke-width:0.5px" />
        <path
           id="path8631"
           d="m 8.38,176.69 c 8.18,8.89 17.55,15.47 30.15,17.57 a 57.45,57.45 0 0 0 13.65,0.65 55.93,55.93 0 0 0 51.4,-50.45 58,58 0 0 0 -1,-16.81 C 100.2,115.9 95.67,108 87.33,100.18"
           class="cls-55"
           inkscape:connector-curvature="0"
           style="fill:none;stroke:#fcbb00;stroke-width:0.5px" />
        <path
           id="path8633"
           d="m 8.41,176.75 c 8.17,8.93 17.57,15.54 30.18,17.66 a 57.4,57.4 0 0 0 13.68,0.67 55.94,55.94 0 0 0 51.49,-50.55 58,58 0 0 0 -1,-16.84 c -2.41,-11.75 -7,-19.68 -15.36,-27.48"
           class="cls-56"
           inkscape:connector-curvature="0"
           style="fill:none;stroke:#fbbb00;stroke-width:0.5px" />
        <path
           id="path8635"
           d="m 8.44,176.81 c 8.16,9 17.59,15.61 30.22,17.75 a 57.4,57.4 0 0 0 13.71,0.69 56,56 0 0 0 51.58,-50.65 58,58 0 0 0 -1.06,-16.88 C 100.45,116 95.81,108 87.42,100.22"
           class="cls-57"
           inkscape:connector-curvature="0"
           style="fill:none;stroke:#fbba00;stroke-width:0.5px" />
        <path
           id="path8637"
           d="m 8.48,176.88 c 8.15,9 17.61,15.67 30.25,17.85 a 57.43,57.43 0 0 0 13.73,0.71 56,56 0 0 0 51.66,-50.75 A 58,58 0 0 0 103,127.77 C 100.57,116 95.88,108 87.46,100.25"
           class="cls-57"
           inkscape:connector-curvature="0"
           style="fill:none;stroke:#fbba00;stroke-width:0.5px" />
        <path
           id="path8639"
           d="m 8.51,176.94 c 8.14,9 17.64,15.74 30.29,17.94 a 57.41,57.41 0 0 0 13.76,0.73 56,56 0 0 0 51.75,-50.85 58,58 0 0 0 -1.12,-16.95 C 100.69,116.06 96,108 87.5,100.27"
           class="cls-58"
           inkscape:connector-curvature="0"
           style="fill:none;stroke:#fbb900;stroke-width:0.5px" />
        <path
           id="path8641"
           d="m 8.54,177 c 8.13,9.08 17.66,15.81 30.32,18 a 57.41,57.41 0 0 0 13.79,0.75 56,56 0 0 0 51.83,-51 58,58 0 0 0 -1.16,-17 C 100.81,116.1 96,108 87.54,100.29"
           class="cls-58"
           inkscape:connector-curvature="0"
           style="fill:none;stroke:#fbb900;stroke-width:0.5px" />
        <path
           id="path8643"
           d="m 8.58,177.07 c 8.12,9.12 17.68,15.88 30.35,18.12 a 57.39,57.39 0 0 0 13.82,0.78 56,56 0 0 0 51.92,-51.05 57.94,57.94 0 0 0 -1.19,-17 c -2.55,-11.76 -7.39,-19.85 -15.91,-27.59"
           class="cls-59"
           inkscape:connector-curvature="0"
           style="fill:none;stroke:#fbb800;stroke-width:0.5px" />
        <path
           id="path8645"
           d="m 8.61,177.14 c 8.11,9.16 17.7,15.94 30.39,18.22 a 57.39,57.39 0 0 0 13.85,0.8 56,56 0 0 0 52,-51.15 57.94,57.94 0 0 0 -1.22,-17.05 c -2.58,-11.76 -7.47,-19.89 -16,-27.61"
           class="cls-60"
           inkscape:connector-curvature="0"
           style="fill:none;stroke:#fbb700;stroke-width:0.5px" />
        <path
           id="path8647"
           d="m 8.65,177.2 c 8.1,9.2 17.72,16 30.42,18.31 A 57.4,57.4 0 0 0 52.95,196.33 56,56 0 0 0 105,145.08 57.92,57.92 0 0 0 103.78,128 c -2.6,-11.77 -7.55,-19.92 -16.13,-27.63"
           class="cls-60"
           inkscape:connector-curvature="0"
           style="fill:none;stroke:#fbb700;stroke-width:0.5px" />
        <path
           id="path8649"
           d="m 8.68,177.27 c 8.09,9.23 17.74,16.08 30.46,18.4 a 57.38,57.38 0 0 0 13.91,0.84 56,56 0 0 0 52.18,-51.35 A 57.9,57.9 0 0 0 103.93,128 48.79,48.79 0 0 0 87.7,100.38"
           class="cls-61"
           inkscape:connector-curvature="0"
           style="fill:none;stroke:#fab600;stroke-width:0.5px" />
        <path
           id="path8651"
           d="m 8.71,177.33 c 8.08,9.27 17.76,16.15 30.49,18.5 a 57.36,57.36 0 0 0 13.94,0.86 56,56 0 0 0 52.27,-51.45 57.89,57.89 0 0 0 -1.32,-17.16 48.92,48.92 0 0 0 -16.35,-27.67"
           class="cls-61"
           inkscape:connector-curvature="0"
           style="fill:none;stroke:#fab600;stroke-width:0.5px" />
        <path
           id="path8653"
           d="m 8.75,177.39 c 8.07,9.31 17.78,16.22 30.52,18.59 a 57.37,57.37 0 0 0 14,0.88 56.05,56.05 0 0 0 52.35,-51.55 57.88,57.88 0 0 0 -1.35,-17.19 49.06,49.06 0 0 0 -16.46,-27.69"
           class="cls-62"
           inkscape:connector-curvature="0"
           style="fill:none;stroke:#fab500;stroke-width:0.5px" />
        <path
           id="path8655"
           d="m 8.78,177.46 c 8.06,9.35 17.8,16.28 30.56,18.68 a 57.35,57.35 0 0 0 14,0.91 56.06,56.06 0 0 0 52.44,-51.65 57.86,57.86 0 0 0 -1.39,-17.23 49.2,49.2 0 0 0 -16.57,-27.71"
           class="cls-62"
           inkscape:connector-curvature="0"
           style="fill:none;stroke:#fab500;stroke-width:0.5px" />
        <path
           id="path8657"
           d="m 8.81,177.52 c 8.05,9.38 17.82,16.35 30.59,18.77 a 57.35,57.35 0 0 0 14,0.93 56.08,56.08 0 0 0 52.6,-51.75 57.87,57.87 0 0 0 -1.42,-17.26 49.33,49.33 0 0 0 -16.67,-27.73"
           class="cls-63"
           inkscape:connector-curvature="0"
           style="fill:none;stroke:#fab400;stroke-width:0.5px" />
        <path
           id="path8659"
           d="m 8.85,177.59 c 8,9.42 17.84,16.42 30.63,18.87 a 57.36,57.36 0 0 0 14.05,0.95 56.09,56.09 0 0 0 52.61,-51.85 57.85,57.85 0 0 0 -1.46,-17.3 A 49.47,49.47 0 0 0 87.9,100.5"
           class="cls-64"
           inkscape:connector-curvature="0"
           style="fill:none;stroke:#fab300;stroke-width:0.5px" />
        <path
           id="path8661"
           d="m 8.88,177.65 c 8,9.46 17.86,16.49 30.66,19 a 57.34,57.34 0 0 0 14.08,1 56.11,56.11 0 0 0 52.7,-52 57.83,57.83 0 0 0 -1.49,-17.34 49.61,49.61 0 0 0 -16.89,-27.78"
           class="cls-64"
           inkscape:connector-curvature="0"
           style="fill:none;stroke:#fab300;stroke-width:0.5px" />
        <path
           id="path8663"
           d="m 8.91,177.72 c 8,9.5 17.88,16.55 30.7,19.05 a 57.35,57.35 0 0 0 14.11,1 56.12,56.12 0 0 0 52.78,-52 57.81,57.81 0 0 0 -1.5,-17.43 49.74,49.74 0 0 0 -17,-27.8"
           class="cls-65"
           inkscape:connector-curvature="0"
           style="fill:none;stroke:#fab200;stroke-width:0.5px" />
        <path
           id="path8665"
           d="m 8.95,177.78 c 8,9.54 17.9,16.62 30.73,19.14 a 57.33,57.33 0 0 0 14.14,1 56.14,56.14 0 0 0 52.87,-52.15 57.8,57.8 0 0 0 -1.55,-17.41 A 49.88,49.88 0 0 0 88,100.57"
           class="cls-66"
           inkscape:connector-curvature="0"
           style="fill:none;stroke:#f9b200;stroke-width:0.5px" />
        <path
           id="path8667"
           d="m 9,177.84 c 8,9.57 17.92,16.69 30.76,19.24 a 57.34,57.34 0 0 0 14.17,1 56.16,56.16 0 0 0 53,-52.25 57.78,57.78 0 0 0 -1.59,-17.44 50,50 0 0 0 -17.22,-27.84"
           class="cls-67"
           inkscape:connector-curvature="0"
           style="fill:none;stroke:#f9b100;stroke-width:0.5px" />
        <path
           id="path8669"
           d="m 9,177.91 c 8,9.61 17.95,16.76 30.8,19.33 A 57.31,57.31 0 0 0 54,198.3 56.17,56.17 0 0 0 107,145.95 57.79,57.79 0 0 0 105.38,128.47 50.16,50.16 0 0 0 88.1,100.61"
           class="cls-67"
           inkscape:connector-curvature="0"
           style="fill:none;stroke:#f9b100;stroke-width:0.5px" />
        <path
           id="path8671"
           d="m 9,178 c 8,9.65 18,16.83 30.83,19.42 a 57.34,57.34 0 0 0 14.23,1.08 56.19,56.19 0 0 0 53.17,-52.5 57.75,57.75 0 0 0 -1.65,-17.51 50.29,50.29 0 0 0 -17.44,-27.88"
           class="cls-68"
           inkscape:connector-curvature="0"
           style="fill:none;stroke:#f9b000;stroke-width:0.5px" />
        <path
           id="path8673"
           d="m 9.08,178 c 8,9.69 18,16.89 30.87,19.52 a 57.29,57.29 0 0 0 14.25,1.1 56.21,56.21 0 0 0 53.21,-52.55 57.74,57.74 0 0 0 -1.69,-17.55 50.44,50.44 0 0 0 -17.55,-27.9"
           class="cls-69"
           inkscape:connector-curvature="0"
           style="fill:none;stroke:#f9af00;stroke-width:0.5px" />
        <path
           id="path8675"
           d="m 9.12,178.1 c 8,9.72 18,17 30.9,19.61 a 57.33,57.33 0 0 0 14.28,1.12 56.22,56.22 0 0 0 53.3,-52.65 57.74,57.74 0 0 0 -1.72,-17.58 50.58,50.58 0 0 0 -17.66,-27.92"
           class="cls-69"
           inkscape:connector-curvature="0"
           style="fill:none;stroke:#f9af00;stroke-width:0.5px" />
        <path
           id="path8677"
           d="m 9.15,178.17 c 8,9.76 18,17 30.93,19.7 A 57.32,57.32 0 0 0 54.4,199 56.24,56.24 0 0 0 107.79,146.25 57.71,57.71 0 0 0 106,128.65 50.72,50.72 0 0 0 88.26,100.7"
           class="cls-70"
           inkscape:connector-curvature="0"
           style="fill:none;stroke:#f9ae00;stroke-width:0.5px" />
        <path
           id="path8679"
           d="m 9.18,178.23 c 7.94,9.8 18,17.1 31,19.79 a 57.31,57.31 0 0 0 14.34,1.17 56.26,56.26 0 0 0 53.48,-52.85 57.7,57.7 0 0 0 -1.79,-17.65 50.86,50.86 0 0 0 -17.88,-28"
           class="cls-70"
           inkscape:connector-curvature="0"
           style="fill:none;stroke:#f9ae00;stroke-width:0.5px" />
        <path
           id="path8681"
           d="m 9.22,178.3 c 7.93,9.84 18.07,17.16 31,19.89 a 57.31,57.31 0 0 0 14.37,1.19 56.28,56.28 0 0 0 53.56,-52.95 57.7,57.7 0 0 0 -1.82,-17.69 51,51 0 0 0 -18,-28"
           class="cls-71"
           inkscape:connector-curvature="0"
           style="fill:none;stroke:#f9ad00;stroke-width:0.5px" />
        <path
           id="path8683"
           d="m 9.25,178.36 c 7.92,9.88 18.09,17.23 31,20 a 57.32,57.32 0 0 0 14.4,1.21 56.3,56.3 0 0 0 53.64,-53 57.7,57.7 0 0 0 -1.85,-17.72 51.14,51.14 0 0 0 -18.1,-28"
           class="cls-72"
           inkscape:connector-curvature="0"
           style="fill:none;stroke:#f8ac00;stroke-width:0.5px" />
        <path
           id="path8685"
           d="m 9.28,178.42 c 7.91,9.91 18.11,17.3 31.07,20.07 a 57.31,57.31 0 0 0 14.43,1.23 56.32,56.32 0 0 0 53.73,-53.15 57.69,57.69 0 0 0 -1.89,-17.76 51.28,51.28 0 0 0 -18.21,-28"
           class="cls-72"
           inkscape:connector-curvature="0"
           style="fill:none;stroke:#f8ac00;stroke-width:0.5px" />
        <path
           id="path8687"
           d="m 9.32,178.49 c 7.9,10 18.13,17.37 31.1,20.17 a 57.3,57.3 0 0 0 14.46,1.25 56.34,56.34 0 0 0 53.82,-53.25 57.66,57.66 0 0 0 -1.92,-17.79 51.42,51.42 0 0 0 -18.32,-28"
           class="cls-73"
           inkscape:connector-curvature="0"
           style="fill:none;stroke:#f8ab00;stroke-width:0.5px" />
        <path
           id="path8689"
           d="m 9.35,178.55 c 7.89,10 18.15,17.44 31.14,20.26 a 57.3,57.3 0 0 0 14.51,1.28 56.36,56.36 0 0 0 53.9,-53.35 57.66,57.66 0 0 0 -2,-17.83 51.56,51.56 0 0 0 -18.4,-28.07"
           class="cls-73"
           inkscape:connector-curvature="0"
           style="fill:none;stroke:#f8ab00;stroke-width:0.5px" />
        <path
           id="path8691"
           d="m 9.38,178.62 c 7.88,10 18.17,17.5 31.17,20.35 a 57.29,57.29 0 0 0 14.51,1.3 56.38,56.38 0 0 0 54,-53.45 57.65,57.65 0 0 0 -2,-17.86 51.71,51.71 0 0 0 -18.53,-28.09"
           class="cls-74"
           inkscape:connector-curvature="0"
           style="fill:none;stroke:#f8aa00;stroke-width:0.5px" />
        <path
           id="path8693"
           d="m 9.42,178.68 c 7.87,10.06 18.19,17.57 31.21,20.44 a 57.31,57.31 0 0 0 14.54,1.32 56.4,56.4 0 0 0 54.07,-53.55 57.62,57.62 0 0 0 -2,-17.9 51.85,51.85 0 0 0 -18.64,-28.11"
           class="cls-74"
           inkscape:connector-curvature="0"
           style="fill:none;stroke:#f8aa00;stroke-width:0.5px" />
        <path
           id="path8695"
           d="m 9.45,178.75 c 7.86,10.1 18.21,17.64 31.24,20.54 a 57.32,57.32 0 0 0 14.57,1.34 56.42,56.42 0 0 0 54.17,-53.63 57.61,57.61 0 0 0 -2.06,-18 52,52 0 0 0 -18.75,-28.13"
           class="cls-75"
           inkscape:connector-curvature="0"
           style="fill:none;stroke:#f8a900;stroke-width:0.5px" />
        <path
           id="path8697"
           d="m 9.49,178.81 c 7.85,10.14 18.23,17.73 31.28,20.63 a 56.41,56.41 0 0 0 68.85,-52.38 57.6,57.6 0 0 0 -2.09,-18 52.13,52.13 0 0 0 -18.86,-28.16"
           class="cls-76"
           inkscape:connector-curvature="0"
           style="fill:none;stroke:#f8a800;stroke-width:0.5px" />
        <path
           id="path8699"
           d="m 9.52,178.87 c 7.84,10.18 18.25,17.8 31.31,20.72 a 56.44,56.44 0 0 0 69,-52.46 57.57,57.57 0 0 0 -2.12,-18 A 52.28,52.28 0 0 0 88.7,101"
           class="cls-77"
           inkscape:connector-curvature="0"
           style="fill:none;stroke:#f7a800;stroke-width:0.5px" />
        <path
           id="path8701"
           d="m 9.55,178.94 c 7.83,10.22 18.27,17.87 31.34,20.82 A 56.46,56.46 0 0 0 110,147.21 57.57,57.57 0 0 0 107.85,129.21 52.42,52.42 0 0 0 88.74,101"
           class="cls-78"
           inkscape:connector-curvature="0"
           style="fill:none;stroke:#f7a700;stroke-width:0.5px" />
        <path
           id="path8703"
           d="m 9.59,179 c 7.82,10.25 18.29,17.94 31.38,20.91 A 56.48,56.48 0 0 0 110.16,147.29 57.57,57.57 0 0 0 108,129.22 52.57,52.57 0 0 0 88.78,101"
           class="cls-78"
           inkscape:connector-curvature="0"
           style="fill:none;stroke:#f7a700;stroke-width:0.5px" />
        <path
           id="path8705"
           d="m 9.62,179.07 c 7.81,10.29 18.31,18 31.41,21 a 56.51,56.51 0 0 0 69.31,-52.7 57.57,57.57 0 0 0 -2.22,-18.11 A 52.71,52.71 0 0 0 88.82,101"
           class="cls-79"
           inkscape:connector-curvature="0"
           style="fill:none;stroke:#f7a600;stroke-width:0.5px" />
        <path
           id="path8707"
           d="M 9.65,179.13 C 17.46,189.46 28,197.2 41.1,200.23 A 56.53,56.53 0 0 0 110.52,147.46 57.54,57.54 0 0 0 108.27,129.31 52.86,52.86 0 0 0 88.86,101"
           class="cls-80"
           inkscape:connector-curvature="0"
           style="fill:none;stroke:#f7a500;stroke-width:0.5px" />
        <path
           id="path8709"
           d="m 9.69,179.2 c 7.79,10.37 18.35,18.14 31.48,21.19 a 56.56,56.56 0 0 0 69.54,-52.85 57.55,57.55 0 0 0 -2.29,-18.18 53,53 0 0 0 -19.52,-28.29"
           class="cls-80"
           inkscape:connector-curvature="0"
           style="fill:none;stroke:#f7a500;stroke-width:0.5px" />
        <path
           id="path8711"
           d="m 9.72,179.26 c 7.78,10.4 18.37,18.2 31.52,21.28 a 56.58,56.58 0 0 0 69.65,-52.93 57.53,57.53 0 0 0 -2.32,-18.22 53.14,53.14 0 0 0 -19.63,-28.3"
           class="cls-81"
           inkscape:connector-curvature="0"
           style="fill:none;stroke:#f7a400;stroke-width:0.5px" />
        <path
           id="path8713"
           d="m 9.75,179.33 c 7.77,10.44 18.39,18.27 31.55,21.37 a 56.61,56.61 0 0 0 69.77,-53 57.5,57.5 0 0 0 -2.35,-18.25 A 53.29,53.29 0 0 0 89,101.11"
           class="cls-81"
           inkscape:connector-curvature="0"
           style="fill:none;stroke:#f7a400;stroke-width:0.5px" />
        <path
           id="path8715"
           d="m 9.79,179.39 c 7.76,10.48 18.41,18.34 31.58,21.46 A 56.64,56.64 0 0 0 111.25,147.76 57.51,57.51 0 0 0 108.86,129.47 53.44,53.44 0 0 0 89,101.14"
           class="cls-82"
           inkscape:connector-curvature="0"
           style="fill:none;stroke:#f6a300;stroke-width:0.5px" />
        <path
           id="path8717"
           d="M 9.82,179.45 C 17.58,190 28.26,197.86 41.44,201 a 56.66,56.66 0 0 0 70,-53.16 A 57.49,57.49 0 0 0 109,129.53 53.58,53.58 0 0 0 89,101.16"
           class="cls-83"
           inkscape:connector-curvature="0"
           style="fill:none;stroke:#f6a200;stroke-width:0.5px" />
        <path
           id="path8719"
           d="M 9.86,179.52 C 17.6,190.07 28.31,198 41.51,201.17 A 56.69,56.69 0 0 0 111.62,147.93 57.47,57.47 0 0 0 109.17,129.57 53.73,53.73 0 0 0 89.1,101.18"
           class="cls-83"
           inkscape:connector-curvature="0"
           style="fill:none;stroke:#f6a200;stroke-width:0.5px" />
        <path
           id="path8721"
           d="m 9.89,179.58 c 7.73,10.59 18.48,18.54 31.69,21.74 A 56.72,56.72 0 0 0 111.8,148 57.47,57.47 0 0 0 109.31,129.61 53.88,53.88 0 0 0 89.13,101.2"
           class="cls-84"
           inkscape:connector-curvature="0"
           style="fill:none;stroke:#f6a100;stroke-width:0.5px" />
        <path
           id="path8723"
           d="m 9.92,179.65 c 7.72,10.63 18.5,18.61 31.72,21.84 A 56.74,56.74 0 0 0 112,148.09 57.47,57.47 0 0 0 109.48,129.66 54,54 0 0 0 89.19,101.23"
           class="cls-85"
           inkscape:connector-curvature="0"
           style="fill:none;stroke:#f6a000;stroke-width:0.5px" />
        <path
           id="path8725"
           d="m 10,179.71 c 7.71,10.67 18.52,18.68 31.75,21.93 a 56.77,56.77 0 0 0 70.46,-53.48 57.45,57.45 0 0 0 -2.55,-18.46 54.17,54.17 0 0 0 -20.39,-28.45"
           class="cls-85"
           inkscape:connector-curvature="0"
           style="fill:none;stroke:#f6a000;stroke-width:0.5px" />
        <path
           id="path8727"
           d="m 10,179.78 c 7.7,10.71 18.54,18.74 31.79,22 a 56.8,56.8 0 0 0 70.57,-53.55 57.44,57.44 0 0 0 -2.59,-18.5 54.31,54.31 0 0 0 -20.5,-28.47"
           class="cls-86"
           inkscape:connector-curvature="0"
           style="fill:none;stroke:#f69f00;stroke-width:0.5px" />
        <path
           id="path8729"
           d="M 10,179.84 A 55.63,55.63 0 0 0 41.85,202 56.83,56.83 0 0 0 112.54,148.37 57.43,57.43 0 0 0 109.92,129.84 54.47,54.47 0 0 0 89.3,101.3"
           class="cls-87"
           inkscape:connector-curvature="0"
           style="fill:none;stroke:#f59f00;stroke-width:0.5px" />
        <path
           id="path8731"
           d="m 10.06,179.9 a 55.71,55.71 0 0 0 31.86,22.21 56.85,56.85 0 0 0 70.8,-53.71 57.43,57.43 0 0 0 -2.65,-18.57 54.61,54.61 0 0 0 -20.72,-28.51"
           class="cls-88"
           inkscape:connector-curvature="0"
           style="fill:none;stroke:#f59e00;stroke-width:0.5px" />
        <path
           id="path8733"
           d="M 10.09,180 A 55.81,55.81 0 0 0 42,202.27 56.88,56.88 0 0 0 112.92,148.48 57.42,57.42 0 0 0 110.23,129.88 54.76,54.76 0 0 0 89.4,101.35"
           class="cls-89"
           inkscape:connector-curvature="0"
           style="fill:none;stroke:#f59d00;stroke-width:0.5px" />
        <path
           id="path8735"
           d="M 10.12,180 A 55.9,55.9 0 0 0 42,202.43 56.88,56.88 0 0 0 110.31,129.92 54.91,54.91 0 0 0 89.37,101.37"
           class="cls-89"
           inkscape:connector-curvature="0"
           style="fill:none;stroke:#f59d00;stroke-width:0.5px" />
        <path
           id="path8737"
           d="m 10.16,180.1 a 56,56 0 0 0 32,22.49 A 56.91,56.91 0 0 0 110.51,130 55.06,55.06 0 0 0 89.46,101.42"
           class="cls-90"
           inkscape:connector-curvature="0"
           style="fill:none;stroke:#f59c00;stroke-width:0.5px" />
        <path
           id="path8739"
           d="m 10.19,180.16 a 56.08,56.08 0 0 0 32,22.58 A 56.94,56.94 0 0 0 110.66,130 55.21,55.21 0 0 0 89.5,101.4"
           class="cls-90"
           inkscape:connector-curvature="0"
           style="fill:none;stroke:#f59c00;stroke-width:0.5px" />
        <path
           id="path8741"
           d="m 10.23,180.23 a 56.17,56.17 0 0 0 32,22.67 57,57 0 0 0 68.56,-72.85 55.36,55.36 0 0 0 -21.27,-28.62"
           class="cls-91"
           inkscape:connector-curvature="0"
           style="fill:none;stroke:#f59b00;stroke-width:0.5px" />
        <path
           id="path8743"
           d="m 10.26,180.29 a 56.26,56.26 0 0 0 32.06,22.76 57,57 0 0 0 68.64,-73 55.51,55.51 0 0 0 -21.38,-28.64"
           class="cls-91"
           inkscape:connector-curvature="0"
           style="fill:none;stroke:#f59b00;stroke-width:0.5px" />
        <path
           id="path8745"
           d="m 10.29,180.36 a 56.35,56.35 0 0 0 32.1,22.86 57,57 0 0 0 68.72,-73.07 55.66,55.66 0 0 0 -21.49,-28.66"
           class="cls-92"
           inkscape:connector-curvature="0"
           style="fill:none;stroke:#f59a00;stroke-width:0.5px" />
        <path
           id="path8747"
           d="m 10.33,180.42 a 56.45,56.45 0 0 0 32.13,22.95 57.07,57.07 0 0 0 68.81,-73.19 55.65,55.65 0 0 0 -21.6,-28.68"
           class="cls-93"
           inkscape:connector-curvature="0"
           style="fill:none;stroke:#f49900;stroke-width:0.5px" />
        <path
           id="path8749"
           d="m 10.36,180.48 a 56.54,56.54 0 0 0 32.16,23 57.1,57.1 0 0 0 68.89,-73.3 55.82,55.82 0 0 0 -21.71,-28.7"
           class="cls-93"
           inkscape:connector-curvature="0"
           style="fill:none;stroke:#f49900;stroke-width:0.5px" />
        <path
           id="path8751"
           d="m 10.39,180.55 a 56.63,56.63 0 0 0 32.2,23.14 57.13,57.13 0 0 0 69,-73.41 56,56 0 0 0 -21.82,-28.72"
           class="cls-94"
           inkscape:connector-curvature="0"
           style="fill:none;stroke:#f49800;stroke-width:0.5px" />
        <path
           id="path8753"
           d="M 10.43,180.61 A 57.05,57.05 0 0 0 111.71,130.31 56.15,56.15 0 0 0 89.78,101.57"
           class="cls-94"
           inkscape:connector-curvature="0"
           style="fill:none;stroke:#f49800;stroke-width:0.5px" />
        <path
           id="path8755"
           d="m 10.46,180.68 a 57.1,57.1 0 0 0 101.4,-50.32 56.3,56.3 0 0 0 -22,-28.77"
           class="cls-95"
           inkscape:connector-curvature="0"
           style="fill:none;stroke:#f49700;stroke-width:0.5px" />
        <path
           id="path8757"
           d="M 10.49,180.74 A 57.14,57.14 0 0 0 112,130.4 56.47,56.47 0 0 0 89.86,101.61"
           class="cls-96"
           inkscape:connector-curvature="0"
           style="fill:none;stroke:#f49600;stroke-width:0.5px" />
        <path
           id="path8759"
           d="M 10.53,180.81 A 57.17,57.17 0 1 0 89.9,101.64"
           class="cls-96"
           inkscape:connector-curvature="0"
           style="fill:none;stroke:#f49600;stroke-width:0.5px" />
        <path
           id="path8761"
           d="M 10.56,180.87 A 57.21,57.21 0 1 0 89.94,101.66"
           class="cls-97"
           inkscape:connector-curvature="0"
           style="fill:none;stroke:#f49500;stroke-width:0.5px" />
        <path
           id="path8763"
           d="M 10.59,180.94 A 57.26,57.26 0 1 0 90,101.69"
           class="cls-97"
           inkscape:connector-curvature="0"
           style="fill:none;stroke:#f49500;stroke-width:0.5px" />
        <path
           id="path8765"
           d="M 10.63,181 A 57.3,57.3 0 1 0 90,101.71"
           class="cls-98"
           inkscape:connector-curvature="0"
           style="fill:none;stroke:#f39400;stroke-width:0.5px" />
        <path
           id="path8767"
           d="m 10.66,181.06 a 57.34,57.34 0 1 0 79.4,-79.33"
           class="cls-99"
           inkscape:connector-curvature="0"
           style="fill:none;stroke:#f39300;stroke-width:0.5px" />
        <path
           id="path8769"
           d="M 10.7,181.13 A 57.39,57.39 0 1 0 90.1,101.75"
           class="cls-99"
           inkscape:connector-curvature="0"
           style="fill:none;stroke:#f39300;stroke-width:0.5px" />
        <path
           id="path8771"
           d="M 10.73,181.19 A 57.43,57.43 0 1 0 90.15,101.77"
           class="cls-100"
           inkscape:connector-curvature="0"
           style="fill:none;stroke:#f39200;stroke-width:0.5px" />
      </g>
      <g
         id="BALL_OUTLINE">
        <circle
           id="circle8774"
           r="57.439999"
           cy="149.98"
           cx="58.939999"
           class="cls-101"
           style="fill:none;stroke:#1d1d1b;stroke-width:3px" />
        <path
           id="path8776"
           d="M 58.94,150"
           class="cls-101"
           inkscape:connector-curvature="0"
           style="fill:none;stroke:#1d1d1b;stroke-width:3px" />
        <path
           id="path8778"
           d="m 116.12,144.48 c -1.68,-10.67 -21.18,-14.48 -29.29,2 7.92,17.93 3.67,40.18 -21.46,60.24"
           class="cls-102"
           inkscape:connector-curvature="0"
           style="fill:none;stroke:#1d1d1b;stroke-width:3px;stroke-linecap:round" />
        <path
           id="path8780"
           d="m 58.94,150 c 6.06,-7.8 15,-14.15 27.89,-3.48"
           class="cls-102"
           inkscape:connector-curvature="0"
           style="fill:none;stroke:#1d1d1b;stroke-width:3px;stroke-linecap:round" />
        <path
           id="path8782"
           d="m 25.58,103.22 c -8.4,6.79 -2,25.59 16.4,24.35 11.56,-15.82 33,-23.26 62.9,-11.53"
           class="cls-102"
           inkscape:connector-curvature="0"
           style="fill:none;stroke:#1d1d1b;stroke-width:3px;stroke-linecap:round" />
        <path
           id="path8784"
           d="m 58.94,150 c -9.79,-1.35 -19.74,-5.89 -17,-22.42"
           class="cls-102"
           inkscape:connector-curvature="0"
           style="fill:none;stroke:#1d1d1b;stroke-width:3px;stroke-linecap:round" />
        <path
           id="path8786"
           d="M 35.11,202.26 C 45.19,206.14 58.24,191.16 48,175.88 28.52,173.77 11.37,159 6.56,127.17"
           class="cls-102"
           inkscape:connector-curvature="0"
           style="fill:none;stroke:#1d1d1b;stroke-width:3px;stroke-linecap:round" />
        <path
           id="path8788"
           d="m 58.94,150 c 3.73,9.15 4.77,20 -10.94,25.89"
           class="cls-102"
           inkscape:connector-curvature="0"
           style="fill:none;stroke:#1d1d1b;stroke-width:3px;stroke-linecap:round" />
      </g>
    </g>
  </g>
</svg>
